# Blender v2.78 (sub 0) OBJ File: '_cat.blend'
# www.blender.org
mtllib _cat.mtl
o cat_立方体.009
v -0.096390 0.000000 0.137413
v 0.196083 0.000000 0.175974
v 0.382398 0.434577 0.240293
v -0.206435 0.000000 0.160964
v -0.401927 0.342935 0.115582
v -0.305079 0.250335 0.121301
v -0.020551 0.448383 0.158336
v -0.388478 0.432000 0.206527
v -0.335865 0.623872 0.175288
v -0.398398 0.599646 0.180328
v -0.311836 0.240408 0.074587
v -0.468125 0.468000 0.122265
v 0.004460 0.505648 0.089954
v -0.355581 0.672007 0.060385
v -0.423485 0.642354 0.105643
v -0.484336 0.564912 0.119685
v -0.529871 0.445170 0.081221
v -0.454777 0.322381 0.063440
v -0.499605 0.322381 0.067362
v -0.143063 0.584977 0.161195
v -0.213175 0.623872 0.163974
v -0.173950 0.602475 0.166772
v -0.115950 0.584977 0.100488
v -0.223266 0.672007 0.048631
v -0.160711 0.627959 0.110802
v -0.313345 0.736521 0.150089
v -0.321178 0.738287 0.131731
v -0.274368 0.716142 0.127305
v -0.272714 0.714375 0.146211
v -0.485599 0.496449 0.113320
v -0.466877 0.489642 0.122156
v -0.439905 0.512915 0.161213
v -0.454097 0.489971 0.109051
v -0.452111 0.491343 0.117136
v -0.067485 0.363633 0.180193
v -0.390848 0.360000 0.179441
v -0.127866 0.387000 0.087436
v -0.485172 0.387000 0.133945
v -0.532980 0.396000 0.103816
v 0.373332 0.000000 0.136664
v -0.452879 0.335178 0.096388
v -0.452143 0.334164 0.093546
v -0.451042 0.334825 0.094006
v -0.447562 0.332658 0.095816
v -0.448538 0.333277 0.097432
v -0.446013 0.333144 0.094974
v -0.498505 0.343102 0.079937
v -0.499513 0.345518 0.081397
v -0.492500 0.343047 0.080443
v -0.502586 0.355242 0.046267
v -0.495820 0.352724 0.042260
v -0.495648 0.352771 0.044466
v -0.537624 0.396000 0.050738
v -0.539911 0.445170 0.082099
v -0.316382 0.236254 0.035396
v -0.432910 0.328550 0.045567
v -0.482603 0.490017 0.049823
v -0.487125 0.489799 0.048584
v -0.017978 0.547848 0.009289
v -0.496362 0.555756 0.081115
v -0.357465 0.672007 0.039534
v -0.428496 0.650832 0.049191
v -0.456146 0.322381 0.047786
v -0.500975 0.322381 0.051708
v -0.225076 0.672007 0.027951
v -0.112111 0.584977 0.017524
v -0.168394 0.626481 0.022984
v -0.133816 0.382955 0.019423
v -0.500975 0.352826 0.051708
v -0.495693 0.352772 0.044461
v -0.495863 0.352725 0.042272
v -0.246645 0.450000 0.202997
v -0.256047 0.346578 0.171273
v -0.274520 0.623872 0.169631
v -0.175162 0.298072 0.170643
v -0.149428 0.262991 0.223556
v 0.166434 0.389729 0.304904
v 0.146921 0.538137 0.218082
v 0.375543 0.529137 0.161943
v -0.251992 0.202400 0.220803
v -0.331666 0.250286 0.155676
v 0.532902 0.343208 0.205082
v 0.524410 0.000000 0.108016
v 0.527829 0.410780 0.147096
v -0.231375 0.035227 0.222570
v 0.528093 0.035227 0.150111
v 0.200559 0.035227 0.227131
v -0.100387 0.035227 0.178554
v 0.377326 0.035227 0.182323
v -0.067485 0.363633 0.180193
v 0.032670 0.467258 0.087485
v 0.032689 0.512395 0.004856
v 0.628578 0.077181 -0.000157
v 0.630813 0.165720 -0.023444
v 0.596416 0.000000 0.001684
v 0.626786 0.042419 -0.023866
v -0.118788 0.000000 -0.118587
v 0.162547 0.000000 -0.207350
v 0.334862 0.434577 -0.303045
v -0.231250 0.000000 -0.122672
v -0.415891 0.342935 -0.044033
v -0.321508 0.250335 -0.066482
v -0.047733 0.448383 -0.152362
v -0.418439 0.432000 -0.135931
v -0.361201 0.623872 -0.114303
v -0.423659 0.599646 -0.108407
v -0.320051 0.240408 -0.019304
v -0.482244 0.468000 -0.039118
v -0.011228 0.505648 -0.089361
v -0.360665 0.672007 0.002279
v -0.435396 0.642354 -0.030501
v -0.497761 0.564912 -0.033762
v -0.535925 0.445170 0.012024
v -0.458884 0.322381 0.016495
v -0.503713 0.322381 0.020417
v -0.168881 0.584977 -0.133904
v -0.238410 0.623872 -0.124465
v -0.200267 0.602475 -0.134032
v -0.131638 0.584977 -0.078827
v -0.228319 0.672007 -0.009122
v -0.177510 0.627959 -0.081212
v -0.334647 0.736521 -0.093397
v -0.339173 0.738287 -0.073958
v -0.292306 0.716142 -0.077728
v -0.293960 0.714375 -0.096634
v -0.497899 0.496449 -0.027275
v -0.480996 0.489642 -0.039228
v -0.461216 0.512915 -0.082375
v -0.466135 0.489971 -0.028541
v -0.465583 0.491343 -0.036848
v -0.097749 0.363633 -0.165737
v -0.416070 0.360000 -0.108845
v -0.141107 0.387000 -0.063903
v -0.501061 0.387000 -0.047661
v -0.542910 0.396000 -0.009688
v 0.179315 0.000000 -0.015688
v 0.126870 0.630000 -0.011100
v -0.179315 0.000000 0.015688
v -0.251041 0.378000 0.021963
v 0.358630 0.621000 -0.031376
v 0.343929 0.000000 -0.199416
v -0.292206 0.000000 0.025565
v -0.400496 0.226660 0.035039
v -0.526653 0.445170 0.046076
v -0.462736 0.335178 -0.016282
v -0.461518 0.334164 -0.013612
v -0.460514 0.334825 -0.014255
v -0.457401 0.332658 -0.016642
v -0.458643 0.333277 -0.018064
v -0.455729 0.333144 -0.016081
v -0.504813 0.343102 0.007842
v -0.506058 0.345518 0.006579
v -0.498987 0.343047 0.006301
v -0.502985 0.355242 0.041709
v -0.495626 0.352724 0.044480
v -0.495865 0.353255 0.043383
v -0.495839 0.352771 0.042278
v -0.496505 0.355161 0.043439
v -0.538267 0.396000 0.043390
v -0.530644 0.400240 0.046425
v -0.531700 0.396000 0.046518
v -0.545965 0.445170 0.012903
v -0.536693 0.445170 0.046954
v -0.536832 0.400240 0.046967
v -0.317722 0.236254 0.020081
v -0.319302 0.238613 0.027935
v -0.434246 0.328550 0.030299
v -0.430311 0.330163 0.037647
v -0.483923 0.490017 0.034737
v -0.490356 0.489136 0.042901
v -0.488161 0.489799 0.036743
v -0.484183 0.495161 0.042361
v -0.019317 0.547848 -0.006026
v -0.016940 0.544486 0.001482
v -0.502906 0.555756 0.006310
v -0.489511 0.555742 0.042827
v -0.358899 0.672007 0.023140
v -0.357600 0.669400 0.031286
v -0.430528 0.650832 0.025964
v -0.428037 0.648962 0.037448
v -0.457514 0.322381 0.032149
v -0.454761 0.324493 0.039786
v -0.502343 0.322381 0.036071
v -0.499026 0.324493 0.043659
v -0.226510 0.672007 0.011557
v -0.227440 0.669400 0.019898
v -0.113451 0.584977 0.002210
v -0.115562 0.583786 0.010110
v -0.169827 0.626481 0.006607
v -0.171697 0.624628 0.015022
v -0.135156 0.382955 0.004109
v -0.137267 0.384119 0.012009
v -0.502343 0.352826 0.036071
v -0.495883 0.352772 0.042290
v -0.495671 0.352725 0.044476
v -0.499026 0.354677 0.043659
v -0.278148 0.450000 -0.157084
v -0.281898 0.378000 -0.124209
v -0.299806 0.623872 -0.119384
v -0.202132 0.298072 -0.137634
v -0.185978 0.262991 -0.194212
v 0.110960 0.389729 -0.329172
v 0.106820 0.538137 -0.240281
v 0.341717 0.529137 -0.224695
v -0.286506 0.202400 -0.173690
v -0.353660 0.250286 -0.095718
v 0.489194 0.343208 -0.294503
v 0.511048 0.483329 -0.044711
v 0.497686 0.000000 -0.197438
v 0.494267 0.410780 -0.236518
v -0.366135 0.089452 0.032033
v -0.326331 0.035227 0.028550
v -0.266509 0.035227 -0.179011
v 0.494003 0.035227 -0.239533
v 0.158071 0.035227 -0.258508
v -0.129867 0.035227 -0.158410
v 0.339934 0.035227 -0.245075
v -0.097749 0.363633 -0.165737
v 0.016982 0.467258 -0.091830
v 0.031349 0.512395 -0.010459
v 0.029238 0.512675 -0.002558
v 0.582774 0.289874 -0.050986
v 0.619056 0.077181 -0.108997
v 0.625301 0.165720 -0.086452
v 0.587063 0.000000 -0.105225
v 0.627965 0.042419 -0.102680
v 0.591740 0.000000 -0.051770
v 0.152647 0.035227 0.170579
v 0.120707 0.035227 -0.194494
v 0.122882 0.000000 -0.153646
v 0.147695 0.000000 0.129974
v 0.135289 0.000000 -0.011836
v 0.601116 0.140129 0.055397
v 0.597613 0.238162 0.015362
v 0.610689 0.028285 0.020744
v 0.582364 0.140129 -0.158938
v 0.585866 0.238162 -0.118903
v 0.597809 0.028285 -0.126474
v 0.725373 0.054832 -0.019554
v 0.728842 0.091877 -0.028391
v 0.729591 0.018688 -0.029106
v 0.755422 0.054832 -0.096104
v 0.751953 0.091877 -0.087266
v 0.751520 0.018688 -0.086163
v 0.863503 0.026478 0.023694
v 0.869103 0.061076 0.016820
v 0.869803 -0.000646 0.015962
v 0.912017 0.026478 -0.035849
v 0.906416 0.061076 -0.028975
v 0.905716 -0.000646 -0.028116
v 0.916034 0.030687 0.129395
v 0.924640 0.066083 0.126527
v 0.925715 0.002937 0.126169
v 0.990578 0.030687 0.104549
v 0.981972 0.066083 0.107418
v 0.980897 0.002937 0.107776
v 0.905529 0.017862 0.255119
v 0.910813 0.040929 0.257769
v 0.911473 -0.000222 0.258100
v 0.951302 0.017862 0.278073
v 0.946018 0.040929 0.275423
v 0.945358 -0.000222 0.275092
vn 0.1651 -0.7911 0.5890
vn 0.0000 -1.0000 0.0000
vn -0.5679 -0.7618 0.3116
vn -0.2900 0.7733 0.5638
vn 0.1004 0.9156 0.3894
vn -0.5709 -0.6218 0.5361
vn 0.1581 0.1662 0.9733
vn -0.1411 -0.7816 0.6076
vn -0.9539 -0.0103 0.2999
vn 0.0453 -0.3203 0.9462
vn 0.6484 -0.6142 -0.4497
vn 0.0000 1.0000 -0.0000
vn -0.2949 0.9466 0.1301
vn 0.4816 0.8603 0.1671
vn -0.4823 -0.2945 0.8250
vn -0.7446 -0.1040 0.6594
vn 0.5854 0.6267 0.5144
vn -0.4326 -0.6465 0.6284
vn -0.5467 0.2914 0.7850
vn 0.7959 0.5869 0.1485
vn -0.7483 0.6633 -0.0105
vn -0.7992 -0.6011 0.0037
vn -0.1819 0.8693 0.4595
vn -0.6132 0.5792 0.5372
vn 0.3168 0.8693 0.3794
vn 0.6267 0.6875 0.3669
vn 0.6394 0.7686 -0.0210
vn 0.4494 0.8928 -0.0298
vn 0.1206 0.2264 0.9665
vn 0.0466 0.8070 -0.5887
vn -0.9339 0.2255 0.2775
vn -0.2310 0.8976 -0.3754
vn -0.1704 -0.9637 0.2053
vn -0.1852 -0.8614 0.4729
vn -0.1562 0.9794 -0.1278
vn -0.2271 -0.5823 0.7806
vn 0.5353 -0.7765 -0.3325
vn 0.4099 -0.8904 0.1978
vn -0.5037 0.7844 0.3620
vn -0.7766 0.6154 0.1349
vn -0.9885 0.1430 -0.0494
vn -0.9962 0.0000 0.0872
vn 0.6191 0.7827 -0.0648
vn 0.7141 -0.6330 -0.2988
vn 0.6248 -0.7808 -0.0015
vn -0.4524 -0.5590 -0.6949
vn 0.1706 0.9471 0.2717
vn -0.4620 -0.4848 -0.7426
vn -0.5756 0.1258 -0.8080
vn -0.4784 -0.3368 -0.8110
vn -0.3637 -0.9061 -0.2160
vn -0.0298 0.7823 0.6222
vn -0.2700 -0.9404 0.2068
vn -0.9931 -0.0866 0.0794
vn -0.3245 -0.8075 0.4925
vn -0.9958 0.0031 -0.0912
vn 0.0690 -0.6116 0.7882
vn -0.6275 -0.7569 -0.1824
vn 0.5490 -0.7295 -0.4079
vn -0.2976 0.9306 -0.2133
vn -0.8288 0.5413 -0.1415
vn -0.9850 -0.1170 -0.1266
vn 0.2229 -0.9601 -0.1689
vn -0.0226 -0.9656 -0.2589
vn 0.5526 0.7316 -0.3993
vn 0.5233 0.7623 -0.3808
vn -0.0263 0.9533 -0.3009
vn 0.3253 0.8905 -0.3180
vn 0.8071 -0.5888 -0.0429
vn -0.9719 0.0000 -0.2353
vn -0.5884 -0.8086 0.0066
vn -0.6519 0.2409 0.7191
vn -0.9755 0.0573 0.2124
vn -0.0167 0.9998 0.0088
vn -0.9809 -0.1926 -0.0268
vn -0.1889 -0.9779 0.0901
vn -0.5712 0.0936 0.8155
vn -0.7136 -0.0518 0.6986
vn -0.8357 0.0510 0.5468
vn -0.6033 0.1148 0.7892
vn 0.0885 -0.0786 0.9930
vn 0.0271 0.1683 0.9854
vn -0.3104 0.6249 0.7164
vn -0.5171 0.7221 0.4596
vn -0.4294 0.4778 0.7664
vn 0.1731 0.5665 0.8057
vn 0.5056 0.5768 0.6417
vn 0.6357 0.7285 0.2554
vn 0.1699 -0.1577 0.9728
vn 0.8401 -0.1041 0.5324
vn 0.9378 0.3435 0.0505
vn -0.4750 0.7651 0.4347
vn 0.1239 -0.7790 0.6146
vn 0.1366 -0.8066 0.5750
vn 0.9034 0.1828 -0.3879
vn 0.1919 -0.0733 0.9787
vn -0.0568 -0.2970 0.9532
vn 0.6519 -0.6135 0.4457
vn -0.7994 -0.2521 0.5454
vn -0.6695 -0.6893 -0.2768
vn -0.5378 -0.8056 0.2484
vn 0.6562 0.4429 0.6109
vn 0.9105 -0.4058 -0.0797
vn 0.0603 -0.7911 -0.6087
vn -0.6134 -0.7618 -0.2082
vn -0.3835 0.7733 -0.5048
vn 0.0313 0.9156 -0.4009
vn 0.1132 -0.1595 -0.9807
vn -0.6553 -0.6218 -0.4288
vn -0.0133 0.1662 -0.9860
vn -0.2445 -0.7816 -0.5738
vn -0.9915 -0.0103 -0.1297
vn -0.0723 -0.3828 -0.9210
vn 0.7167 -0.6142 0.3303
vn -0.3130 0.9466 -0.0769
vn 0.4453 0.8603 -0.2482
vn -0.6182 -0.2945 -0.7288
vn -0.8478 -0.1040 -0.5201
vn 0.4872 0.6267 -0.6082
vn -0.5352 -0.6465 -0.5437
vn -0.6748 0.2914 -0.6781
vn 0.7581 0.5869 -0.2845
vn -0.7351 0.6633 0.1403
vn -0.7877 -0.6011 0.1352
vn -0.2589 0.8693 -0.4210
vn -0.6971 0.5792 -0.4225
vn 0.2461 0.8693 -0.4286
vn 0.5535 0.6875 -0.4702
vn 0.6333 0.7686 -0.0903
vn 0.4478 0.8928 -0.0487
vn -0.0491 0.2264 -0.9728
vn 0.1481 0.8070 0.5717
vn -0.9679 0.2255 -0.1111
vn -0.1623 0.8976 0.4098
vn -0.2034 -0.9637 -0.1726
vn -0.2646 -0.8614 -0.4336
vn -0.1317 0.9794 0.1530
vn -0.3397 -0.5028 -0.7948
vn 0.5849 -0.7765 0.2345
vn 0.3694 -0.8904 -0.2660
vn -0.5589 0.7844 -0.2690
vn -0.7882 0.6154 0.0021
vn -0.9649 0.1430 0.2203
vn 0.6209 0.7827 -0.0437
vn 0.7552 -0.6330 0.1703
vn 0.6155 -0.7808 -0.1071
vn -0.3248 -0.5590 0.7629
vn 0.1209 0.9471 -0.2972
vn -0.3261 -0.4848 0.8116
vn -0.4266 0.1257 0.8957
vn -0.3304 -0.3368 0.8817
vn -0.3206 -0.9061 0.2759
vn -0.1374 0.7823 -0.6076
vn -0.3018 -0.9404 -0.1568
vn -0.9917 -0.0869 0.0943
vn -0.4051 -0.8075 -0.4287
vn -0.9649 0.0031 0.2627
vn -0.0690 -0.6116 -0.7882
vn -0.5863 -0.7569 0.2886
vn 0.6115 -0.7295 0.3064
vn -0.2560 0.9306 0.2617
vn -0.7917 0.5413 0.2833
vn -0.9481 -0.1170 0.2957
vn 0.2489 -0.9601 0.1276
vn 0.0226 -0.9656 0.2589
vn 0.6136 0.7316 0.2972
vn 0.5815 0.7623 0.2841
vn 0.0263 0.9533 0.3009
vn 0.3756 0.8905 0.2567
vn 0.8023 -0.5888 -0.0979
vn -0.9163 0.0000 0.4005
vn -0.5806 -0.8086 0.0957
vn -0.7668 0.2409 -0.5950
vn -0.9976 0.0573 -0.0398
vn -0.0180 0.9998 -0.0058
vn -0.9614 -0.1926 0.1967
vn -0.2017 -0.9779 -0.0560
vn -0.7041 0.0936 -0.7039
vn -0.8241 -0.0518 -0.5641
vn -0.9180 0.0510 -0.3933
vn -0.7312 0.1148 -0.6725
vn -0.0916 -0.0919 -0.9915
vn -0.1445 0.1683 -0.9751
vn -0.4301 0.6249 -0.6516
vn -0.5890 0.7221 -0.3628
vn -0.5560 0.4778 -0.6802
vn 0.0306 0.5665 -0.8235
vn 0.3865 0.5768 -0.7197
vn 0.5817 0.7285 -0.3619
vn -0.0016 -0.1577 -0.9875
vn 0.7349 -0.1041 -0.6702
vn 0.9148 0.3435 -0.2126
vn -0.5433 0.7651 -0.3456
vn 0.0153 -0.7790 -0.6268
vn 0.0347 -0.8066 -0.5900
vn 0.0191 -0.0733 -0.9971
vn -0.2214 -0.2970 -0.9288
vn 0.5646 -0.6135 -0.5521
vn -0.8819 -0.2521 -0.3983
vn -0.6113 -0.6893 0.3888
vn -0.5728 -0.8056 -0.1512
vn 0.5401 0.4429 -0.7156
vn 0.9814 0.1715 -0.0859
vn 0.7982 -0.3086 0.5174
vn 0.6962 -0.3086 -0.6481
vn 0.0202 -0.7575 0.6526
vn -0.8443 -0.2104 -0.4928
vn -0.0934 -0.7575 -0.6462
vn -0.7459 -0.2104 0.6319
vn 0.5490 0.8321 0.0793
vn 0.9113 0.1379 0.3880
vn 0.8840 -0.1317 0.4486
vn 0.8301 0.1379 -0.5404
vn 0.7178 -0.0641 -0.6932
vn 0.8899 0.4495 -0.0779
vn 0.5126 -0.8582 -0.0265
vn -0.1086 -0.9921 -0.0621
vn 0.1311 0.2376 -0.9625
vn 0.2322 0.2311 0.9448
vn -0.2034 -0.9785 -0.0346
vn 0.0715 -0.2181 -0.9733
vn 0.0138 -0.4243 0.9054
vn -0.0204 0.9993 -0.0298
vn 0.2985 -0.3011 -0.9057
vn -0.3348 -0.2997 0.8934
vn 0.1704 0.9805 0.0984
vn 0.3855 0.2440 -0.8899
vn -0.2480 0.2374 0.9392
vn 0.9297 -0.3159 0.1893
vn 0.8452 0.2381 -0.4785
vn -0.8725 0.2366 0.4276
vn 0.0146 -0.9997 0.0213
vn 0.8284 -0.3314 -0.4516
vn -0.8385 -0.3307 0.4331
vn -0.4483 0.0000 0.8939
vn -0.9409 -0.3202 -0.1102
vn 0.0026 0.9861 0.1662
vn 0.9463 0.2240 0.2333
vn -0.9713 0.2306 -0.0579
vn -0.0003 -0.9998 -0.0212
vn 0.9570 0.1828 0.2252
vn 0.2818 -0.1595 0.9461
vn -0.6777 0.6910 0.2514
vn -0.7111 0.6910 -0.1298
usemtl vertex
s off
f 1//1 88//1 85//1 4//1
f 136//2 2//2 231//2 232//2
f 4//3 85//3 212//3 142//3
f 138//2 1//2 4//2 142//2
f 139//4 81//4 75//4
f 137//5 78//5 79//5 140//5
f 2//6 87//6 228//6 231//6
f 7//7 20//7 22//7 21//7 74//7 72//7
f 42//8 47//8 19//8 18//8
f 30//9 16//9 60//9
f 73//10 72//10 8//10 36//10
f 37//11 13//11 7//11 35//11
f 24//12 65//12 61//12 14//12
f 14//13 61//13 62//13 15//13
f 59//14 66//14 23//14 13//14
f 8//15 38//15 36//15
f 8//16 32//16 12//16
f 13//17 23//17 20//17 7//17
f 41//18 38//18 39//18 48//18
f 38//19 12//19 17//19 39//19
f 21//20 24//20 28//20 29//20
f 144//21 17//21 58//21 170//21
f 48//22 39//22 53//22 50//22
f 9//23 14//23 15//23 10//23
f 16//24 10//24 15//24
f 24//25 21//25 22//25 25//25
f 25//26 22//26 20//26 23//26
f 67//27 25//27 23//27 66//27
f 29//28 28//28 27//28 26//28
f 9//29 74//29 21//29 29//29 26//29
f 24//30 14//30 27//30 28//30
f 14//31 9//31 26//31 27//31
f 31//32 32//32 34//32
f 30//33 33//33 34//33
f 34//34 32//34 30//34
f 34//35 33//35 31//35
f 6//36 35//36 73//36 36//36 5//36 45//36 44//36 11//36
f 11//37 37//37 35//37 6//37
f 56//38 43//38 42//38 18//38 63//38
f 17//39 12//39 57//39 58//39
f 63//2 18//2 19//2 64//2
f 15//40 62//40 60//40 16//40
f 39//41 17//41 144//41 160//41 53//41
f 47//42 69//42 64//42 19//42
f 65//43 24//43 25//43 67//43
f 68//44 59//44 13//44 37//44
f 55//45 68//45 37//45 11//45
f 41//46 46//46 42//46 43//46 44//46 45//46
f 70//47 69//47 47//47 49//47 52//47
f 50//48 158//48 156//48 52//48
f 161//49 53//49 160//49
f 161//50 158//50 50//50 53//50
f 52//51 49//51 48//51 50//51
f 47//52 42//52 46//52 49//52
f 49//53 46//53 41//53 48//53
f 71//54 70//54 52//54 156//54 51//54
f 5//55 36//55 38//55 41//55 45//55
f 163//56 164//56 54//56
f 144//12 163//12 54//12 17//12
f 17//57 54//57 164//57 160//57
f 55//58 56//58 168//58 166//58
f 68//59 55//59 166//59 192//59
f 62//60 61//60 178//60 180//60
f 60//61 62//61 180//61 176//61
f 57//62 60//62 176//62 172//62
f 56//63 63//63 182//63 168//63
f 63//64 64//64 184//64 182//64
f 65//65 67//65 190//65 186//65
f 67//66 66//66 188//66 190//66
f 61//67 65//67 186//67 178//67
f 66//68 59//68 174//68 188//68
f 59//69 68//69 192//69 174//69
f 196//70 184//70 64//70 69//70
f 55//71 11//71 44//71 43//71 56//71
f 8//72 12//72 38//72
f 57//73 12//73 31//73
f 57//74 31//74 33//74
f 60//75 57//75 30//75
f 30//76 57//76 33//76
f 8//77 10//77 32//77
f 16//78 30//78 32//78
f 32//79 31//79 12//79
f 10//80 16//80 32//80
f 35//81 7//81 72//81 73//81
f 72//82 74//82 9//82 10//82 8//82
f 75//83 81//83 80//83 76//83
f 78//84 137//84 139//84 75//84
f 75//85 76//85 77//85 78//85
f 78//86 77//86 3//86 79//86
f 79//87 3//87 82//87 84//87
f 140//88 79//88 84//88 208//88
f 3//89 89//89 86//89 82//89
f 86//90 235//90 233//90 82//90
f 208//91 84//91 234//91 222//91
f 58//92 57//92 172//92 170//92
f 86//93 89//93 40//93 83//93
f 89//94 87//94 2//94 40//94
f 210//95 237//95 236//95 207//95
f 85//96 88//96 76//96 80//96
f 88//97 228//97 77//97 76//97
f 83//98 95//98 235//98 86//98
f 212//99 85//99 80//99 81//99 143//99 211//99
f 13//100 59//100 92//100 91//100
f 59//101 174//101 221//101 92//101
f 7//102 91//102 13//102
f 235//103 95//103 227//103
f 97//104 100//104 213//104 216//104
f 136//2 232//2 230//2 98//2
f 100//105 142//105 212//105 213//105
f 138//2 142//2 100//2 97//2
f 206//106 139//106 200//106
f 137//107 140//107 204//107 203//107
f 202//108 99//108 217//108 215//108
f 98//109 230//109 229//109 215//109
f 103//110 197//110 199//110 117//110 118//110 116//110
f 146//111 114//111 115//111 151//111
f 126//112 175//112 112//112
f 198//113 132//113 104//113 197//113
f 133//114 131//114 103//114 109//114
f 120//12 110//12 177//12 185//12
f 110//115 111//115 179//115 177//115
f 173//116 109//116 119//116 187//116
f 104//117 132//117 134//117
f 104//118 108//118 128//118
f 109//119 103//119 116//119 119//119
f 145//120 152//120 135//120 134//120
f 134//121 135//121 113//121 108//121
f 117//122 125//122 124//122 120//122
f 144//123 170//123 171//123 113//123
f 152//124 154//124 159//124 135//124
f 105//125 106//125 111//125 110//125
f 112//126 111//126 106//126
f 120//127 121//127 118//127 117//127
f 121//128 119//128 116//128 118//128
f 189//129 187//129 119//129 121//129
f 125//130 122//130 123//130 124//130
f 105//131 122//131 125//131 117//131 199//131
f 120//132 124//132 123//132 110//132
f 110//133 123//133 122//133 105//133
f 127//134 130//134 128//134
f 126//135 130//135 129//135
f 130//136 126//136 128//136
f 130//137 127//137 129//137
f 102//138 107//138 148//138 149//138 101//138 132//138 198//138 131//138
f 107//139 102//139 131//139 133//139
f 167//140 181//140 114//140 146//140 147//140
f 113//141 171//141 169//141 108//141
f 181//2 183//2 115//2 114//2
f 111//142 112//142 175//142 179//142
f 135//143 159//143 160//143 144//143 113//143
f 151//42 115//42 183//42 193//42
f 185//144 189//144 121//144 120//144
f 191//145 133//145 109//145 173//145
f 165//146 107//146 133//146 191//146
f 145//147 149//147 148//147 147//147 146//147 150//147
f 194//148 157//148 153//148 151//148 193//148
f 154//149 157//149 156//149 158//149
f 161//150 160//150 159//150
f 161//151 159//151 154//151 158//151
f 157//152 154//152 152//152 153//152
f 151//153 153//153 150//153 146//153
f 153//154 152//154 145//154 150//154
f 195//155 155//155 156//155 157//155 194//155
f 101//156 149//156 145//156 134//156 132//156
f 163//157 162//157 164//157
f 144//12 113//12 162//12 163//12
f 113//158 160//158 164//158 162//158
f 165//159 166//159 168//159 167//159
f 191//160 192//160 166//160 165//160
f 179//161 180//161 178//161 177//161
f 175//162 176//162 180//162 179//162
f 169//163 172//163 176//163 175//163
f 167//164 168//164 182//164 181//164
f 181//165 182//165 184//165 183//165
f 185//166 186//166 190//166 189//166
f 189//167 190//167 188//167 187//167
f 177//168 178//168 186//168 185//168
f 187//169 188//169 174//169 173//169
f 173//170 174//170 192//170 191//170
f 196//171 193//171 183//171 184//171
f 165//172 167//172 147//172 148//172 107//172
f 104//173 134//173 108//173
f 169//174 127//174 108//174
f 169//175 129//175 127//175
f 175//176 126//176 169//176
f 126//177 129//177 169//177
f 104//178 128//178 106//178
f 112//179 128//179 126//179
f 128//180 108//180 127//180
f 106//181 128//181 112//181
f 131//182 198//182 197//182 103//182
f 197//183 104//183 106//183 105//183 199//183
f 200//184 201//184 205//184 206//184
f 203//185 200//185 139//185 137//185
f 200//186 203//186 202//186 201//186
f 203//187 204//187 99//187 202//187
f 204//188 210//188 207//188 99//188
f 140//189 208//189 210//189 204//189
f 99//190 207//190 214//190 217//190
f 207//191 236//191 238//191 214//191
f 208//192 222//192 237//192 210//192
f 171//193 170//193 172//193 169//193
f 214//194 209//194 141//194 217//194
f 217//195 141//195 98//195 215//195
f 213//196 205//196 201//196 216//196
f 216//197 201//197 202//197 229//197
f 214//198 238//198 225//198 209//198
f 212//199 211//199 143//199 206//199 205//199 213//199
f 109//200 219//200 220//200 173//200
f 173//201 220//201 221//201 174//201
f 219//202 103//202 109//202
f 238//103 227//103 225//103
f 222//203 234//203 237//203
f 40//2 2//2 136//2 98//2 141//2 209//2 225//2 227//2 95//2 83//2
f 7//204 90//204 91//204
f 219//205 218//205 103//205
f 231//206 228//206 88//206 1//206
f 229//207 202//207 215//207
f 232//2 231//2 1//2 138//2
f 229//208 230//208 97//208 216//208
f 77//209 228//209 87//209
f 230//2 232//2 138//2 97//2
f 235//103 227//103 238//103
f 224//210 94//210 240//210 243//210
f 93//211 94//211 234//211 233//211
f 96//212 93//212 233//212 235//212
f 224//213 223//213 236//213 237//213
f 223//214 226//214 238//214 236//214
f 94//215 224//215 237//215 234//215
f 226//216 96//216 235//216 238//216
f 241//217 244//217 250//217 247//217
f 223//218 224//218 243//218 242//218
f 94//219 93//219 239//219 240//219
f 96//220 226//220 244//220 241//220
f 226//221 223//221 242//221 244//221
f 93//222 96//222 241//222 239//222
f 249//223 246//223 252//223 255//223
f 244//224 242//224 248//224 250//224
f 239//225 241//225 247//225 245//225
f 243//226 240//226 246//226 249//226
f 242//227 243//227 249//227 248//227
f 240//228 239//228 245//228 246//228
f 256//229 254//229 260//229 262//229
f 248//230 249//230 255//230 254//230
f 246//231 245//231 251//231 252//231
f 247//232 250//232 256//232 253//232
f 250//233 248//233 254//233 256//233
f 245//234 247//234 253//234 251//234
f 258//235 257//235 259//235 262//235 260//235 261//235
f 251//236 253//236 259//236 257//236
f 255//237 252//237 258//237 261//237
f 254//238 255//238 261//238 260//238
f 252//239 251//239 257//239 258//239
f 253//240 256//240 262//240 259//240
f 82//241 233//241 234//241 84//241
f 3//242 77//242 87//242 89//242
f 139//243 143//243 81//243
f 206//244 143//244 139//244
